<svg xmlns="http://www.w3.org/2000/svg" width="1485" height="447.53" viewBox="0 0 1485 447.53"><path d="M184.18,224.36l-6.26,35.55a9.67,9.67,0,0,0,9.53,11.36h80.78a19.36,19.36,0,0,0,19.06-16l6.26-35.55A9.68,9.68,0,0,0,284,208.36H203.24A19.36,19.36,0,0,0,184.18,224.36Z" transform="translate(-62.36 -83.82)" fill="#fff"/><path d="M143,426.54l-6.26,35.55a9.68,9.68,0,0,0,9.53,11.36H264.79a19.36,19.36,0,0,0,19.06-16l6.26-35.56a9.67,9.67,0,0,0-9.53-11.35H162.06A19.35,19.35,0,0,0,143,426.54Z" transform="translate(-62.36 -83.82)" fill="#a9ccff"/><path d="M68.77,325.45,62.51,361A9.68,9.68,0,0,0,72,372.36H225.82a19.35,19.35,0,0,0,19.06-16l6.27-35.55a9.68,9.68,0,0,0-9.54-11.36H87.84A19.36,19.36,0,0,0,68.77,325.45Z" transform="translate(-62.36 -83.82)" fill="#c7e0ff"/><path d="M858.61,524a9.67,9.67,0,0,1-9.49-11.57l2.61-13.06Q838.8,512.9,816,522.12a126.57,126.57,0,0,1-48,9.23q-41.25,0-69.25-24.93t-28-66.79q0-53.56,38.47-84.95t101.89-31.4q37.53,0,67.71,18.47l2.46-12.31a98.63,98.63,0,0,0,2.47-19.7q0-37.55-46.79-37.56-43,0-87.5,24.58A9.63,9.63,0,0,1,735.38,290l-6.85-37.84a19.09,19.09,0,0,1,9.13-20.08Q791,202,849.88,202a146.14,146.14,0,0,1,34.78,4.31,148.85,148.85,0,0,1,36,14.47q18.47,10.16,29.86,30.47t11.39,48.64q0,11.07-4.31,36.94L927.78,507.94a19.36,19.36,0,0,1-19.07,16Zm-68.45-62.79q38.75,0,69.1-23.52a9.91,9.91,0,0,0,3.61-6l4-21.73a9.56,9.56,0,0,0-6-10.8Q838.33,391,809.86,391q-25.25,0-42.78,10.15t-17.55,31.1q0,12.93,11.09,20.92T790.16,461.18Z" transform="translate(-62.36 -83.82)" fill="#fff"/><path d="M1088.88,531.35q-38.79,0-71.41-16-27.39-13.43-41.32-33.8a9.79,9.79,0,0,1,2.06-13.34l36.54-27.89c7.62-5.82,18.1-4.91,25.23,1.5a82.4,82.4,0,0,0,56.9,21.82q18.46,0,31.71-7.08t13.23-21.24q0-12.3-20.93-24.93a347,347,0,0,0-46.18-23.08q-25.24-10.47-46.16-32.94t-20.93-52.64q0-45.54,35.08-72.64T1133.2,202q35.08,0,63.41,15.4,22.19,12.06,35.31,26.77a9.72,9.72,0,0,1-1.58,14.27L1193,285.77a19.23,19.23,0,0,1-24.35-1.3q-17.42-16-44.07-16-17.86,0-28.93,7.39t-11.08,19.7q0,9.23,14.16,18.16a270.73,270.73,0,0,0,34.17,17.85,393.11,393.11,0,0,1,39.7,20.62,113.67,113.67,0,0,1,33.86,31.09,72.78,72.78,0,0,1,14.15,44q0,48.63-35.39,76.33T1088.88,531.35Z" transform="translate(-62.36 -83.82)" fill="#fff"/><path d="M626.84,229q-23.72-28-68.65-28-47.4,0-77.57,38.78l3.55-20a9.69,9.69,0,0,0-9.54-11.36H388.41a19.36,19.36,0,0,0-19.06,16l-6.26,35.55a9.67,9.67,0,0,0,9.53,11.36h23.05L353.35,511.59a9.68,9.68,0,0,0,9.53,11.35h51A19.35,19.35,0,0,0,433,507l29.19-165q5.54-32.62,24.93-49.25t41.56-16.62q40,0,40,43.09,0,10.49-3.08,30.17L536.82,511.58a9.66,9.66,0,0,0,9.52,11.36h51a19.36,19.36,0,0,0,19.06-16l29.17-163.8q4.92-27.07,4.92-43.09Q650.54,257,626.84,229Z" transform="translate(-62.36 -83.82)" fill="#fff"/><path d="M1537.68,461.06h-22.93l20.81-116.85q4.92-27.07,4.92-43.09,0-43.1-23.7-71.11t-68.64-28q-47.42,0-78.19,39.4l26.13-146.18a9.67,9.67,0,0,0-12.42-10.94l-57.87,18.16a19.35,19.35,0,0,0-13.27,15.13l-69.24,395.05a9.68,9.68,0,0,0,9.54,11.35H1312a9.67,9.67,0,0,0,9.53-8l30.6-173q5.55-32.62,24.93-49.25t41.56-16.62q40,0,40,43.09,0,10.49-3.08,30.17L1426.76,512.6a9.68,9.68,0,0,0,9.53,11.37h85.6A19.35,19.35,0,0,0,1541,508l6.26-35.55A9.68,9.68,0,0,0,1537.68,461.06Z" transform="translate(-62.36 -83.82)" fill="#fff"/></svg>