<svg width="905" height="212" viewBox="0 0 905 212" fill="none" xmlns="http://www.w3.org/2000/svg">
<g clip-path="url(#clip0)">
<path d="M404.099 70.7998C403.98 70.9187 403.861 70.9187 403.624 70.9187C403.505 70.9187 403.267 70.9187 403.148 70.7998C403.267 70.9187 403.386 70.9187 403.624 70.9187C403.861 70.9187 403.98 70.7998 404.099 70.7998Z" fill="#00CD68"/>
<path d="M416.705 151.785C416.348 151.785 416.11 151.785 415.754 151.666C415.516 151.547 415.159 151.428 414.921 151.19C414.683 150.952 414.564 150.714 414.445 150.477C414.327 150.239 414.208 149.882 414.208 149.525V148.812L414.802 145.482C412.186 148.098 409.094 150.239 405.526 151.547C401.483 153.093 397.202 153.925 392.921 153.925C386.261 154.163 379.721 151.785 374.607 147.266C372.229 145.125 370.326 142.39 369.137 139.417C367.948 136.444 367.353 133.233 367.472 129.903C367.234 125.622 368.067 121.46 369.85 117.655C371.634 113.849 374.25 110.4 377.58 107.784C385.191 102.076 394.705 99.103 404.218 99.6976C410.402 99.6976 416.586 101.362 421.819 104.454L422.413 101.125C422.77 99.4597 422.889 97.7948 423.008 96.1299C423.008 89.4704 418.846 86.1406 410.64 86.1406C402.553 86.2596 394.586 88.519 387.569 92.8002C386.975 93.1569 386.38 93.1569 385.786 93.038C385.191 92.9191 384.596 92.4434 384.359 91.9677C384.359 91.9677 384.359 91.3731 384.359 91.1353L382.575 81.146C382.456 80.0757 382.575 79.0054 383.051 78.054C383.526 77.1027 384.121 76.2702 385.072 75.6756C393.991 70.681 404.218 67.9458 414.445 67.9458C417.537 67.8269 420.51 68.3026 423.483 69.135C427.051 69.9675 430.381 71.1567 433.473 72.9405C436.803 74.8432 439.538 77.5784 441.321 81.0271C443.343 85.0704 444.295 89.4704 444.295 93.9894C444.295 97.2002 443.581 100.411 443.105 103.503L435.257 148.455C435.138 149.644 434.543 150.714 433.592 151.547C432.64 152.379 431.451 152.736 430.262 152.617H417.3V151.785H416.705V151.785ZM398.986 135.255C405.526 135.255 411.829 132.995 416.943 128.952C417.181 128.833 417.419 128.595 417.656 128.357C417.775 128.12 417.894 127.763 417.894 127.525L418.846 121.817C418.964 121.579 418.964 121.222 418.964 120.984C418.964 120.746 418.846 120.39 418.727 120.152C418.608 119.914 418.37 119.676 418.132 119.557C417.894 119.438 417.656 119.319 417.418 119.2C413.018 117.773 408.499 117.06 403.862 117.06C400.056 117.06 396.251 118.011 392.802 119.795C391.375 120.509 390.067 121.698 389.353 123.125C388.521 124.552 388.164 126.217 388.283 127.882C388.283 128.952 388.64 130.022 389.115 130.974C389.591 131.925 390.424 132.757 391.256 133.352C393.515 134.779 396.251 135.493 398.986 135.255Z" fill="#00266D"/>
<path d="M477.236 153.925C470.814 153.925 464.511 152.498 458.684 149.763C454.403 147.741 450.597 144.649 447.862 140.844C447.387 140.368 447.149 139.773 447.149 139.06C447.149 138.346 447.387 137.752 447.862 137.276L457.852 130.022C458.803 129.308 459.873 128.952 461.062 128.952C462.252 128.952 463.441 129.308 464.273 130.022C468.435 133.708 473.787 135.73 479.376 135.73C482.468 135.849 485.56 135.136 488.414 133.827C489.484 133.352 490.436 132.519 491.03 131.449C491.625 130.498 491.982 129.308 491.982 128.119C491.982 125.979 490.198 123.957 486.511 121.46C482.706 119.2 478.663 117.297 474.619 115.514C469.981 113.492 465.938 110.519 462.608 106.832C459.16 103.027 457.257 98.1513 457.257 93.0377C457.019 89.3512 457.852 85.6647 459.397 82.4538C461.062 79.124 463.441 76.2699 466.414 74.2483C473.192 69.2536 481.636 66.6374 490.079 66.9942C494.955 66.9942 499.711 67.9455 504.112 69.8482C508.512 71.751 512.555 74.6051 515.885 78.1727C516.36 78.6483 516.598 79.2429 516.598 79.9565C516.598 80.67 516.36 81.2646 515.885 81.7403L505.895 88.9944C504.944 89.7079 503.874 90.0647 502.685 90.0647C501.495 90.0647 500.425 89.7079 499.474 88.9944C496.263 86.1403 492.101 84.5944 487.701 84.7133C485.084 84.7133 482.587 85.3079 480.327 86.4971C479.376 86.9728 478.663 87.8052 478.187 88.6377C477.711 89.589 477.354 90.5404 477.354 91.6107C477.473 92.681 477.949 93.6323 478.544 94.4648C479.138 95.2972 479.971 96.0107 480.922 96.4864C483.895 98.2702 486.987 99.8162 489.96 101.362C493.409 102.908 496.738 104.811 499.949 106.832C503.517 108.854 506.609 111.589 508.987 114.919C511.485 118.13 512.793 122.173 512.912 126.216C513.149 130.022 512.317 133.827 510.771 137.395C509.106 140.844 506.728 143.936 503.755 146.314C496.025 151.428 486.749 154.282 477.236 153.925Z" fill="#00266D"/>
<path d="M356.056 74.3678C353.796 71.8704 351.061 69.9677 347.85 68.6596C344.758 67.3514 341.428 66.8758 338.099 67.1136C334.174 67.1136 330.369 67.9461 326.801 69.7299C323.352 71.5137 320.261 74.011 318.001 77.2218L318.952 71.7515C319.071 71.1569 318.952 70.4434 318.596 69.9677C318.239 69.3731 317.644 69.0163 317.05 68.8974H293.503C292.314 68.8974 291.125 69.3731 290.293 70.0866C289.341 70.8001 288.747 71.8704 288.39 73.0596L286.844 82.3354C286.725 82.93 286.844 83.6435 287.201 84.2381C287.557 84.8327 288.152 85.1895 288.747 85.3084H295.525L284.347 148.336C284.228 148.931 284.347 149.644 284.703 150.12C285.06 150.715 285.655 151.071 286.249 151.19H300.639C301.828 151.19 303.017 150.715 303.85 150.001C304.801 149.288 305.395 148.217 305.633 147.028L313.482 103.86C313.958 98.8653 316.336 94.2275 320.142 90.8977C322.996 88.0436 326.801 86.4976 330.844 86.3787C337.742 86.3787 340.834 90.3031 340.834 97.7951C340.834 100.411 340.477 103.028 339.882 105.525L332.39 148.098C332.272 148.693 332.39 149.407 332.747 150.001C333.104 150.596 333.699 150.952 334.293 151.071H348.445C349.634 151.071 350.823 150.596 351.656 149.763C352.607 149.05 353.201 147.979 353.558 146.79L360.931 103.979C361.645 100.292 362.002 96.4869 362.121 92.6815C362.121 86.1409 359.98 79.7192 356.056 74.3678Z" fill="#00266D"/>
<path d="M594.729 135.254H588.783L594.253 105.167C594.967 101.362 595.323 97.5564 595.442 93.7509C595.68 86.9725 593.421 80.4319 589.139 75.1994C586.88 72.702 584.026 70.7993 580.934 69.6101C577.842 68.4209 574.512 67.8263 571.182 67.9452C567.258 67.8263 563.453 68.7777 559.885 70.5615C556.436 72.3453 553.344 74.8426 551.085 78.0535L557.982 39.7611C558.101 39.4043 558.101 39.0476 557.982 38.8097C557.982 38.453 557.863 38.2151 557.626 37.8584C557.507 37.6205 557.269 37.3827 556.912 37.1448C556.674 36.907 556.317 36.7881 555.961 36.7881H554.534L539.193 41.5449C538.36 41.7827 537.528 42.2584 536.815 42.9719C536.22 43.6855 535.744 44.5179 535.506 45.3504L517.193 149.049C517.074 149.644 517.193 150.357 517.431 150.952C517.787 151.546 518.263 151.903 518.976 152.141H535.15C535.744 152.141 536.339 152.022 536.815 151.546C537.29 151.189 537.528 150.595 537.647 150L545.734 104.692C546.328 99.697 548.588 95.178 552.393 91.8482C555.247 88.9941 559.053 87.4482 563.096 87.3292C569.993 87.3292 573.085 91.2536 573.085 98.7456C573.085 101.362 572.728 103.978 572.134 106.475L564.761 149.049C564.642 149.406 564.642 149.644 564.642 150C564.642 150.357 564.761 150.595 564.999 150.952C565.118 151.189 565.355 151.427 565.712 151.665C565.95 151.903 566.307 152.022 566.664 152.022H589.734C590.923 152.022 592.112 151.546 592.945 150.833C593.896 150.119 594.491 149.049 594.729 147.86L596.275 138.584C596.394 137.989 596.275 137.276 596.037 136.681C595.68 136.087 595.204 135.73 594.491 135.492L594.729 135.254Z" fill="#00266D"/>
<path d="M744.925 151.784C744.568 151.784 744.331 151.784 743.974 151.665C743.736 151.546 743.379 151.427 743.141 151.19C742.904 150.952 742.785 150.714 742.666 150.476C742.547 150.238 742.428 149.882 742.428 149.525V148.811L743.022 145.481C740.406 148.217 737.195 150.238 733.628 151.546C729.584 153.092 725.422 153.925 721.141 153.925C714.482 154.163 707.941 151.784 702.827 147.265C700.449 145.125 698.546 142.39 697.357 139.417C696.168 136.444 695.573 133.233 695.692 129.903C695.454 125.622 696.287 121.46 698.071 117.654C699.854 113.849 702.471 110.4 705.8 107.784C713.53 102.076 722.925 99.2214 732.439 99.6971C738.741 99.5782 744.806 101.243 750.158 104.573L750.752 101.243C751.109 99.5782 751.228 97.9133 751.347 96.2484C751.347 89.5889 747.185 86.2591 738.979 86.2591C730.893 86.378 722.925 88.6375 715.909 92.9186C715.314 93.2754 714.719 93.2754 714.125 93.1565C713.53 93.0376 712.936 92.5619 712.698 92.0862C712.698 92.0862 712.698 91.4916 712.698 91.2538L710.914 81.2645C710.795 80.1942 710.914 79.1239 711.39 78.1725C711.865 77.2212 712.46 76.3887 713.292 75.7941C722.33 70.7995 732.439 68.0643 742.666 68.0643C745.758 67.9454 748.731 68.3021 751.704 69.1346C755.033 69.967 758.244 71.2751 761.217 72.94C764.547 74.8428 767.282 77.5779 769.066 81.0266C771.088 85.0699 772.039 89.47 772.039 93.9889C771.92 97.1998 771.563 100.411 770.85 103.503L763.001 148.454C762.882 149.644 762.169 150.833 761.217 151.546C760.266 152.379 759.077 152.736 757.887 152.617H745.044V151.665L744.925 151.784ZM726.968 135.254C733.509 135.254 739.812 132.995 744.925 128.952C745.163 128.833 745.401 128.595 745.52 128.357C745.639 128.119 745.758 127.762 745.758 127.524L746.947 121.816C747.066 121.341 747.066 120.746 746.828 120.27C746.59 119.795 746.114 119.438 745.639 119.2C741.358 117.773 736.839 117.059 732.439 117.059C728.633 117.059 724.828 118.011 721.379 119.795C719.952 120.508 718.763 121.697 717.93 123.124C717.098 124.551 716.741 126.216 716.86 127.881C716.86 128.952 717.217 130.022 717.692 130.973C718.168 131.925 719.001 132.757 719.833 133.352C721.855 134.779 724.471 135.492 726.968 135.254Z" fill="#0041FF"/>
<path d="M682.254 77.4588C680.114 74.4858 677.378 72.1074 674.168 70.5615C670.957 68.8966 667.389 68.0641 663.703 68.1831C660.135 68.1831 656.567 68.8966 653.238 70.4425C650.027 71.9885 647.054 74.1291 644.794 76.9832L645.746 72.8209C645.746 72.3453 645.508 71.7507 645.151 71.3939C644.794 71.0371 644.319 70.7993 643.724 70.6804H621.724C620.416 70.6804 619.107 71.0371 618.156 71.8696C617.205 72.702 616.491 73.8912 616.253 75.1994L614.707 84.2373C614.707 84.5941 614.707 84.8319 614.707 85.1887C614.826 85.5454 614.945 85.7833 615.183 86.0211C615.421 86.2589 615.659 86.4968 615.897 86.6157C616.134 86.7346 616.491 86.8536 616.848 86.8536H622.675L606.621 180.325C606.621 180.92 606.621 181.514 606.621 181.871C606.859 182.584 607.215 183.179 607.929 183.536C608.524 183.893 609.237 184.011 609.951 183.774L623.983 179.255C625.054 178.898 625.886 178.422 626.599 177.59C627.313 176.757 627.789 175.806 627.908 174.736L632.783 146.789C634.686 149.406 637.183 151.546 640.156 152.854C643.129 154.281 646.34 154.876 649.551 154.638C655.021 154.519 660.373 153.211 665.249 150.833C670.124 148.454 674.405 145.006 677.854 140.724C686.179 130.022 690.341 116.584 689.627 103.027C690.222 93.8699 687.606 84.8319 682.254 77.4588ZM663.703 125.978C662.038 128.476 659.897 130.616 657.281 132.043C654.665 133.47 651.692 134.184 648.719 134.184C646.102 134.303 643.486 133.589 641.346 132.043C639.919 131.211 638.729 129.903 638.016 128.357C637.302 126.811 637.064 125.027 637.421 123.362L641.583 98.3888C642.059 95.7726 643.486 93.5131 645.508 91.7293L648.243 90.0644C650.74 88.6374 653.475 87.9238 656.33 87.9238C658.232 87.8049 660.135 88.1617 661.919 88.8752C663.703 89.5887 665.249 90.7779 666.438 92.3239C668.816 96.0104 669.886 100.292 669.768 104.692C669.768 112.184 667.746 119.676 663.703 125.978Z" fill="#0041FF"/>
<path d="M779.531 179.375L795.585 150.002L780.958 74.1306C780.72 73.0603 780.958 71.9901 781.553 71.0387C782.147 70.0873 783.099 69.4927 784.169 69.2549H798.321C799.034 69.2549 799.866 69.6116 800.461 70.0873C801.056 70.563 801.531 71.2765 801.65 71.9901L809.975 116.942C810.569 119.439 810.926 121.937 811.164 124.434C812.115 121.818 813.304 119.32 814.732 116.942L838.753 72.9414C839.348 71.9901 840.062 71.1576 841.013 70.563C841.964 69.9684 843.035 69.6116 844.105 69.6116H855.997C857.067 69.6116 858.019 70.0873 858.732 70.8009C859.446 71.5144 859.921 72.4657 859.921 73.536C859.921 74.1306 859.683 74.8441 859.327 75.3198L803.077 178.424C802.364 179.851 801.175 181.04 799.866 181.872C798.439 182.705 796.893 183.062 795.348 182.943H781.553C781.196 182.943 780.958 182.943 780.601 182.824C780.364 182.705 780.007 182.586 779.769 182.348C779.531 182.11 779.412 181.872 779.293 181.635C779.174 181.397 779.055 181.04 779.055 180.683C779.055 180.208 779.174 179.732 779.531 179.375Z" fill="#0041FF"/>
<path opacity="0.25" d="M242.249 100.53C242.249 88.1622 237.849 76.2702 229.881 66.7565C221.914 57.3618 210.973 50.9401 198.724 48.7996C186.475 46.659 174.108 48.9185 163.405 54.9834C152.702 61.1673 144.496 70.9188 140.334 82.454C133.437 76.508 124.993 72.7026 115.956 71.5134C106.918 70.3241 97.7607 71.8701 89.5552 75.9134C81.3497 79.8378 74.5712 86.1406 70.0522 94.1082C65.5333 101.957 63.3927 110.995 63.9873 120.152C64.5819 129.19 67.7928 137.99 73.382 145.125C78.9713 152.379 86.4633 157.731 95.1444 160.704C103.707 163.677 113.101 163.914 121.902 161.655C130.702 159.277 138.55 154.401 144.615 147.503C147.469 144.174 149.967 140.487 151.869 136.444C159.005 143.936 168.162 149.287 178.389 151.547C188.497 153.925 199.081 153.093 208.832 149.406L207.881 126.573" fill="#2C8CFF"/>
<path d="M102.517 157.493C112.863 157.493 123.091 154.401 131.653 148.693C140.334 142.865 146.994 134.66 151.037 125.027C155.08 115.395 156.032 104.93 154.01 94.7027C151.988 84.4756 146.994 75.1998 139.621 67.8267C132.247 60.4537 122.972 55.459 112.745 53.4374C102.517 51.4157 92.0524 52.486 82.4198 56.4104C72.7873 60.3347 64.5818 67.1132 58.8736 75.7944C53.1654 84.4756 50.0735 94.5838 50.0735 104.93C50.0735 118.844 55.5438 132.163 65.4142 142.033C75.2846 151.903 88.6037 157.493 102.517 157.493Z" fill="white"/>
<path d="M102.517 58.5513C111.674 58.5513 120.712 61.2864 128.323 66.4C135.934 71.5136 141.88 78.7677 145.448 87.2111C149.015 95.6544 149.848 105.049 148.064 114.087C146.28 123.125 141.88 131.331 135.339 137.871C128.799 144.412 120.593 148.812 111.555 150.596C102.517 152.379 93.2416 151.428 84.6794 147.979C76.236 144.412 68.9819 138.466 63.8683 130.855C58.7547 123.244 56.0196 114.206 56.0196 105.049C56.0196 92.8003 61.0142 80.9083 69.6954 72.2271C78.3766 63.5459 90.2686 58.5513 102.517 58.5513ZM102.517 52.4863C92.1714 52.4863 81.9442 55.5783 73.3819 61.2864C64.7007 67.1135 57.9223 75.2001 53.9979 84.8327C49.9546 94.4652 48.8843 104.93 50.906 115.157C52.9276 125.385 57.9223 134.66 65.2953 142.033C72.6684 149.406 81.9442 154.401 92.1713 156.423C102.399 158.444 112.863 157.374 122.496 153.45C132.129 149.525 140.334 142.747 146.042 134.066C151.869 125.385 154.842 115.276 154.842 104.93C154.842 91.0165 149.372 77.6974 139.621 67.946C129.869 58.0756 116.55 52.6052 102.755 52.4863H102.517Z" fill="url(#paint0_linear)"/>
<path d="M89.9118 86.141L91.101 93.5141C91.2199 93.9898 91.4577 94.4654 91.9334 94.8222C92.2902 95.179 92.8848 95.2979 93.3605 95.2979L108.939 89.9465C109.89 89.5897 110.604 88.9951 111.08 88.1627C111.555 87.3302 111.793 86.3789 111.674 85.4275L110.485 77.9355C110.485 77.6977 110.366 77.4598 110.247 77.222C110.128 76.9841 109.89 76.8652 109.771 76.6274C109.534 76.5085 109.296 76.3895 109.058 76.2706C108.82 76.2706 108.582 76.1517 108.344 76.2706L92.7659 81.741C91.9334 82.0977 91.2199 82.6923 90.7442 83.5248C90.0307 84.2383 89.7928 85.1897 89.9118 86.141Z" fill="#0041FF"/>
<path d="M97.1662 121.698L98.3554 129.19C98.3554 129.428 98.4743 129.666 98.5932 129.904C98.7121 130.142 98.95 130.38 99.0689 130.499C99.3067 130.618 99.5446 130.736 99.7824 130.855C100.02 130.855 100.258 130.855 100.496 130.855L120.593 123.958C121.545 123.601 122.258 123.007 122.734 122.174C123.21 121.342 123.448 120.39 123.21 119.439L122.021 112.066C121.902 111.59 121.664 111.115 121.188 110.758C120.712 110.401 120.237 110.282 119.642 110.401L99.5446 117.298C98.7121 117.655 97.9986 118.25 97.5229 119.082C97.2851 119.915 97.0472 120.866 97.1662 121.698Z" fill="#0041FF"/>
<path d="M77.1873 109.806L78.3765 117.298C78.3765 117.536 78.4954 117.774 78.6143 118.012C78.7332 118.249 78.9711 118.368 79.09 118.606C79.3278 118.725 79.5657 118.844 79.8035 118.963C80.0414 118.963 80.2792 119.082 80.5171 118.963L107.512 109.687C108.463 109.449 109.296 108.736 109.771 107.903C110.247 107.071 110.485 106.12 110.247 105.168L109.058 97.7951C109.058 97.5572 108.939 97.3194 108.82 97.0816C108.701 96.8437 108.463 96.6059 108.344 96.487C108.107 96.368 107.869 96.2491 107.631 96.1302C107.393 96.0113 107.155 96.0113 106.798 96.1302L79.8035 105.406C78.8522 105.644 78.0197 106.238 77.544 107.071C77.0684 107.784 76.9494 108.855 77.1873 109.806Z" fill="#0041FF"/>
<path d="M207.524 126.811L224.53 136.801C237.373 128.833 246.649 116.465 250.692 101.957C254.735 87.4488 253.07 71.9892 246.173 58.5512C239.276 45.2321 227.503 34.886 213.351 29.8913C199.2 24.7778 183.621 25.2535 169.707 31.1995C155.913 37.1455 144.734 48.0862 138.669 61.762C132.485 75.5568 131.772 91.0164 136.647 105.287C141.523 119.557 151.512 131.449 164.832 138.585C178.032 145.72 193.491 147.623 208.119 143.817L207.524 126.811Z" fill="#0041FF"/>
<path d="M219.773 79.2432C220.962 71.5134 215.016 67.2323 206.811 64.616L209.546 54.0321L203.005 52.4861L200.151 62.4755C198.486 62.4755 196.94 61.5241 195.156 61.2863L197.892 51.2969L191.232 49.751L188.497 59.7403L184.335 58.7889L175.416 56.6484L173.632 63.5457L178.507 64.7349C179.459 64.8539 180.172 65.3295 180.767 66.162C181.362 66.8755 181.599 67.8269 181.48 68.6593L178.626 80.5514H179.221H178.389L174.226 97.3191C173.989 97.9137 173.513 98.3894 173.037 98.6272C172.443 98.8651 171.848 98.984 171.253 98.7462L166.378 97.557L163.167 105.049L171.491 107.19L176.01 108.379L173.275 119.082L179.935 120.628L182.67 110.638C184.335 111.114 185.999 111.59 187.783 111.827L185.048 121.817L191.589 123.363L194.324 112.66C205.502 114.8 213.589 113.849 217.157 103.979C217.87 102.552 218.346 101.006 218.346 99.4597C218.465 97.9137 218.227 96.3678 217.632 94.8218C217.038 93.3948 216.205 91.9677 215.135 90.8974C214.065 89.8271 212.638 88.8758 211.211 88.4001C213.589 87.9244 215.73 86.6163 217.276 84.8325C218.821 83.0487 219.773 80.7892 219.892 78.2919V79.2432H219.773ZM205.027 99.9354C202.886 107.903 189.329 103.503 184.929 102.552L188.497 88.519C193.016 89.1136 207.524 91.492 205.027 99.9354ZM207.048 78.8865C205.265 86.1406 193.848 82.4541 190.281 81.6216L193.61 68.6593C197.535 69.6107 208.832 71.3945 207.524 78.8865H207.048Z" fill="white"/>
<path d="M214.184 137.752L215.492 177.828L227.622 160.823L248.433 158.563L214.184 137.752Z" fill="#00266D"/>
</g>
<defs>
<linearGradient id="paint0_linear" x1="65.3239" y1="142.095" x2="139.562" y2="67.8562" gradientUnits="userSpaceOnUse">
<stop stop-color="#004CFD"/>
<stop offset="1" stop-color="#0052F3"/>
</linearGradient>
<clipPath id="clip0">
<rect width="810.086" height="157.451" fill="white" transform="translate(49.9546 26.3232)"/>
</clipPath>
</defs>
</svg>
