<svg xmlns="http://www.w3.org/2000/svg" xmlns:xlink="http://www.w3.org/1999/xlink" width="459.09" height="459.09" viewBox="0 0 459.09 459.09"><defs><linearGradient id="a" x1="67.23" y1="391.86" x2="391.86" y2="67.23" gradientUnits="userSpaceOnUse"><stop offset="0" stop-color="#004cfd"/><stop offset="1" stop-color="#0052f3"/></linearGradient></defs><circle cx="229.55" cy="229.55" r="229.55" fill="url(#a)"/><path d="M228,150.42,221.38,188a10.24,10.24,0,0,0,10.08,12H315.1a20.46,20.46,0,0,0,20.15-16.92l6.63-37.59a10.24,10.24,0,0,0-10.08-12H248.16A20.47,20.47,0,0,0,228,150.42Z" transform="translate(-20.97 -22.01)" fill="#0048d8"/><path d="M203.32,334.63l-6.62,37.59a10.24,10.24,0,0,0,10.08,12H315.54a20.49,20.49,0,0,0,20.16-16.92l6.62-37.59a10.24,10.24,0,0,0-10.08-12H223.48A20.46,20.46,0,0,0,203.32,334.63Z" transform="translate(-20.97 -22.01)" fill="#0048d8"/><path d="M124.83,242.52l-6.62,37.6a10.23,10.23,0,0,0,10.08,12h146a20.46,20.46,0,0,0,20.16-16.91l6.62-37.6a10.22,10.22,0,0,0-10.08-12H145A20.48,20.48,0,0,0,124.83,242.52Z" transform="translate(-20.97 -22.01)" fill="#0048d8"/><path d="M221.18,139.71l-6.62,37.59a10.24,10.24,0,0,0,10.08,12h83.64a20.48,20.48,0,0,0,20.16-16.92l6.62-37.59a10.24,10.24,0,0,0-10.08-12H241.34A20.48,20.48,0,0,0,221.18,139.71Z" transform="translate(-20.97 -22.01)" fill="#fff"/><path d="M196.5,323.91l-6.62,37.6a10.24,10.24,0,0,0,10.08,12H308.72a20.47,20.47,0,0,0,20.16-16.92L335.5,319a10.24,10.24,0,0,0-10.08-12H216.66A20.48,20.48,0,0,0,196.5,323.91Z" transform="translate(-20.97 -22.01)" fill="#fff"/><path d="M118,231.81,111.4,269.4a10.23,10.23,0,0,0,10.08,12h146a20.46,20.46,0,0,0,20.15-16.91l6.63-37.6a10.24,10.24,0,0,0-10.08-12h-146A20.47,20.47,0,0,0,118,231.81Z" transform="translate(-20.97 -22.01)" fill="#fff"/></svg>